<svg version="1.1" id="Layer_1" xmlns="http://www.w3.org/2000/svg" xmlns:xlink="http://www.w3.org/1999/xlink" x="0px" y="0px"
	 width="100%" viewBox="0 0 702 702" enable-background="new 0 0 702 702" xml:space="preserve">
<path fill="transparent" opacity="1.000000" stroke="none" 
	d="
M1.000000,334.000000 
	C1.000000,223.031723 1.000000,112.063446 1.000000,1.047586 
	C234.901382,1.047586 468.802765,1.047586 703.000000,1.047586 
	C703.000000,152.691437 703.000000,304.383087 702.623413,456.481018 
	C701.842163,456.225861 701.205627,455.609589 701.066650,454.896332 
	C696.592163,431.935455 685.832947,412.630127 667.944702,397.377838 
	C645.294006,378.064850 619.186279,369.885284 589.561768,372.542419 
	C588.459839,372.641266 586.503967,370.995819 586.082153,369.771759 
	C572.982483,331.754913 547.620605,306.266907 508.985565,294.598297 
	C494.257996,290.150238 479.105927,288.291168 463.746918,291.012695 
	C455.447876,292.483215 447.223816,294.376678 438.789886,295.747681 
	C435.402954,285.977875 432.908478,276.220520 428.867920,267.152069 
	C396.329010,194.123016 341.067596,149.010605 262.379150,133.652573 
	C222.562485,125.881363 183.206497,129.343460 145.571259,144.311661 
	C68.128136,175.112152 21.251888,231.995270 4.449190,313.617340 
	C3.060650,320.362396 2.138728,327.203522 1.000000,334.000000 
z"/>
<path fill="#F8E700" opacity="1.000000" stroke="none" 
	d="
M1.000000,334.468658 
	C2.138728,327.203522 3.060650,320.362396 4.449190,313.617340 
	C21.251888,231.995270 68.128136,175.112152 145.571259,144.311661 
	C183.206497,129.343460 222.562485,125.881363 262.379150,133.652573 
	C341.067596,149.010605 396.329010,194.123016 428.867920,267.152069 
	C432.908478,276.220520 435.402954,285.977875 438.594727,296.031952 
	C416.544434,305.379669 398.013947,318.695312 384.521698,338.419342 
	C380.712524,343.987946 377.488159,349.956573 373.940369,355.833099 
	C372.607666,355.398865 371.353760,354.995453 370.103180,354.582001 
	C343.812714,345.890228 317.754578,346.981781 292.785370,358.570068 
	C256.469543,375.424255 235.048233,404.451508 228.736450,443.794128 
	C222.458557,482.925690 233.941727,516.997131 262.318604,544.660950 
	C270.405304,552.544434 280.655548,558.208618 289.528381,564.940674 
	C271.254395,570.553406 252.935760,574.062378 234.247284,574.764587 
	C182.060303,576.725403 134.319626,563.015625 92.221794,531.889709 
	C45.084255,497.037720 15.781186,450.607971 4.805578,392.849823 
	C3.425575,385.587738 2.263205,378.284271 1.000000,371.000000 
	C1.000000,358.979095 1.000000,346.958221 1.000000,334.468658 
z"/>
<path fill="#DCDCDC" opacity="1.000000" stroke="none" 
	d="
M289.913696,564.890442 
	C280.655548,558.208618 270.405304,552.544434 262.318604,544.660950 
	C233.941727,516.997131 222.458557,482.925690 228.736450,443.794128 
	C235.048233,404.451508 256.469543,375.424255 292.785370,358.570068 
	C317.754578,346.981781 343.812714,345.890228 370.103180,354.582001 
	C371.353760,354.995453 372.607666,355.398865 373.940369,355.833099 
	C377.488159,349.956573 380.712524,343.987946 384.521698,338.419342 
	C398.013947,318.695312 416.544434,305.379669 438.770752,296.363647 
	C447.223816,294.376678 455.447876,292.483215 463.746918,291.012695 
	C479.105927,288.291168 494.257996,290.150238 508.985565,294.598297 
	C547.620605,306.266907 572.982483,331.754913 586.082153,369.771759 
	C586.503967,370.995819 588.459839,372.641266 589.561768,372.542419 
	C619.186279,369.885284 645.294006,378.064850 667.944702,397.377838 
	C685.832947,412.630127 696.592163,431.935455 701.066650,454.896332 
	C701.205627,455.609589 701.842163,456.225861 702.623413,456.943665 
	C703.000000,467.687561 703.000000,478.375122 702.623413,489.587463 
	C701.897766,490.445984 701.304871,490.735016 701.234314,491.119781 
	C696.949707,514.484314 685.906677,533.867554 668.020447,549.639099 
	C650.074585,565.463196 628.983521,574.539368 605.578552,574.711426 
	C510.999634,575.406616 416.412567,575.002441 321.828522,574.976501 
	C320.367188,574.976135 318.825958,574.861572 317.457520,574.399170 
	C308.255737,571.290283 299.090668,568.072754 289.913696,564.890442 
z"/>
<path fill="transparent" opacity="1.000000" stroke="none" 
	d="
M289.528381,564.940674 
	C299.090668,568.072754 308.255737,571.290283 317.457520,574.399170 
	C318.825958,574.861572 320.367188,574.976135 321.828522,574.976501 
	C416.412567,575.002441 510.999634,575.406616 605.578552,574.711426 
	C628.983521,574.539368 650.074585,565.463196 668.020447,549.639099 
	C685.906677,533.867554 696.949707,514.484314 701.234314,491.119781 
	C701.304871,490.735016 701.897766,490.445984 702.623413,490.056152 
	C703.000000,560.975098 703.000000,631.950195 703.000000,702.962646 
	C469.106934,702.962646 235.213867,702.962646 1.000000,702.962646 
	C1.000000,592.645996 1.000000,482.291656 1.000000,371.468658 
	C2.263205,378.284271 3.425575,385.587738 4.805578,392.849823 
	C15.781186,450.607971 45.084255,497.037720 92.221794,531.889709 
	C134.319626,563.015625 182.060303,576.725403 234.247284,574.764587 
	C252.935760,574.062378 271.254395,570.553406 289.528381,564.940674 
z"/>
</svg>