<svg version="1.1" id="Layer_1" xmlns="http://www.w3.org/2000/svg" xmlns:xlink="http://www.w3.org/1999/xlink" x="0px" y="0px"
	 width="100%" viewBox="0 0 702 702" enable-background="new 0 0 702 702" xml:space="preserve">
<path fill="#DCDCDC" opacity="1.000000" stroke="none" 
	d="
M1.000001,300.000000 
	C1.000000,286.312439 1.000000,272.624878 1.376361,258.383240 
	C2.166909,256.817413 2.687054,255.835281 2.979210,254.789459 
	C6.681235,241.537460 9.077353,227.750656 14.289981,215.125626 
	C25.548571,187.857208 43.559692,165.472076 67.518623,147.953079 
	C82.045563,137.330826 97.812721,129.170761 114.991356,124.104034 
	C134.875992,118.239189 155.251999,114.876297 176.009659,118.072067 
	C188.747772,120.033188 201.365814,122.928505 213.899033,125.975044 
	C217.801361,126.923607 219.221893,126.160568 221.245941,122.848618 
	C228.511276,110.960297 235.178009,98.448402 244.096695,87.882034 
	C262.528137,66.045448 285.452667,50.118591 312.682312,40.471119 
	C341.828888,30.144485 371.436920,28.311445 401.471313,34.769188 
	C433.572021,41.671204 460.864624,57.360226 483.724457,81.055077 
	C502.274017,100.282204 515.100098,122.674812 522.428772,148.215027 
	C523.768127,152.882568 525.807495,153.367020 529.910461,152.584045 
	C547.542664,149.219254 565.262146,149.125504 582.883362,152.499969 
	C616.700989,158.975998 645.252686,174.805847 667.714417,201.150635 
	C685.503540,222.015015 696.962585,245.818283 701.078003,273.046539 
	C701.237732,274.103729 702.338013,275.018738 703.000000,276.000000 
	C703.000000,288.687561 703.000000,301.375122 702.624695,314.618469 
	C701.852356,315.854645 701.198181,316.498383 701.095276,317.220673 
	C696.695374,348.091400 682.767883,374.260620 661.633118,396.789978 
	C651.888428,407.177704 640.389709,415.409729 627.992981,422.335571 
	C607.643433,433.704559 585.759460,440.780823 562.481323,440.841309 
	C434.537384,441.173706 306.592010,441.076355 178.647476,440.888824 
	C164.966354,440.868744 151.307373,441.990173 137.532364,439.251343 
	C119.244728,435.615295 101.661758,430.320496 85.373093,421.433380 
	C69.248878,412.635925 55.075184,401.221649 42.732906,387.419800 
	C22.229118,364.491302 9.329199,338.035858 3.838864,307.837708 
	C3.348791,305.142181 1.967427,302.608734 1.000001,300.000000 
z"/>
<path fill="transparent" opacity="1.000000" stroke="none" 
	d="
M1.000001,300.468658 
	C1.967427,302.608734 3.348791,305.142181 3.838864,307.837708 
	C9.329199,338.035858 22.229118,364.491302 42.732906,387.419800 
	C55.075184,401.221649 69.248878,412.635925 85.373093,421.433380 
	C101.661758,430.320496 119.244728,435.615295 137.532364,439.251343 
	C151.307373,441.990173 164.966354,440.868744 178.647476,440.888824 
	C306.592010,441.076355 434.537384,441.173706 562.481323,440.841309 
	C585.759460,440.780823 607.643433,433.704559 627.992981,422.335571 
	C640.389709,415.409729 651.888428,407.177704 661.633118,396.789978 
	C682.767883,374.260620 696.695374,348.091400 701.095276,317.220673 
	C701.198181,316.498383 701.852356,315.854645 702.624695,315.087128 
	C703.000000,444.295441 703.000000,573.590881 703.000000,702.943176 
	C469.106445,702.943176 235.212891,702.943176 1.000000,702.943176 
	C1.000000,568.979248 1.000000,434.958282 1.000001,300.468658 
M380.073761,494.368195 
	C375.620636,491.083160 370.893951,492.425842 366.837036,494.563812 
	C353.369843,501.660950 342.022919,511.492401 333.941681,524.393433 
	C326.234314,536.697632 330.769379,551.668884 343.216736,558.058228 
	C355.501617,564.364136 370.681488,559.120422 375.887268,545.690491 
	C379.515930,536.329224 381.979584,526.375000 383.710327,516.466736 
	C384.967590,509.269012 385.775330,501.468445 380.073761,494.368195 
M279.322174,575.862244 
	C283.614227,563.357178 286.999329,550.676636 285.131897,537.287964 
	C283.891266,528.392944 278.873230,524.859253 270.824860,528.524048 
	C263.697937,531.769226 256.800903,536.278748 251.048538,541.581909 
	C244.543610,547.578796 238.070358,554.367188 234.000961,562.085999 
	C226.320724,576.653992 236.966034,593.846985 253.389038,595.278442 
	C262.314056,596.056274 274.044189,591.723083 279.322174,575.862244 
M426.446503,618.909546 
	C429.321747,610.287842 432.955994,601.827332 434.831146,592.993347 
	C436.320862,585.975159 436.387665,578.436096 435.755798,571.245239 
	C435.064880,563.382629 429.748962,560.607483 422.177399,562.958557 
	C420.291656,563.544128 418.435028,564.346069 416.710968,565.309692 
	C405.195404,571.746033 395.796387,580.655212 387.871460,591.050476 
	C379.173798,602.459412 381.247772,617.624878 392.185730,625.638855 
	C402.992554,633.556702 417.342712,630.955933 426.446503,618.909546 
M285.006958,633.810669 
	C281.620605,646.072083 286.498016,657.379822 297.464874,662.692871 
	C307.626251,667.615784 320.891174,664.881042 326.697296,655.210083 
	C335.444122,640.640930 339.153839,624.403870 337.393158,607.433655 
	C336.362030,597.495117 330.601257,594.312500 321.551056,598.728149 
	C306.001251,606.315063 293.590912,617.631836 285.006958,633.810669 
z"/>
<path fill="transparent" opacity="1.000000" stroke="none" 
	d="
M703.000000,275.531311 
	C702.338013,275.018738 701.237732,274.103729 701.078003,273.046539 
	C696.962585,245.818283 685.503540,222.015015 667.714417,201.150635 
	C645.252686,174.805847 616.700989,158.975998 582.883362,152.499969 
	C565.262146,149.125504 547.542664,149.219254 529.910461,152.584045 
	C525.807495,153.367020 523.768127,152.882568 522.428772,148.215027 
	C515.100098,122.674812 502.274017,100.282204 483.724457,81.055077 
	C460.864624,57.360226 433.572021,41.671204 401.471313,34.769188 
	C371.436920,28.311445 341.828888,30.144485 312.682312,40.471119 
	C285.452667,50.118591 262.528137,66.045448 244.096695,87.882034 
	C235.178009,98.448402 228.511276,110.960297 221.245941,122.848618 
	C219.221893,126.160568 217.801361,126.923607 213.899033,125.975044 
	C201.365814,122.928505 188.747772,120.033188 176.009659,118.072067 
	C155.251999,114.876297 134.875992,118.239189 114.991356,124.104034 
	C97.812721,129.170761 82.045563,137.330826 67.518623,147.953079 
	C43.559692,165.472076 25.548571,187.857208 14.289981,215.125626 
	C9.077353,227.750656 6.681235,241.537460 2.979210,254.789459 
	C2.687054,255.835281 2.166909,256.817413 1.376361,257.914551 
	C1.000000,172.363678 1.000000,86.727371 1.000000,1.045526 
	C234.886734,1.045526 468.773468,1.045526 703.000000,1.045526 
	C703.000000,92.353951 703.000000,183.708313 703.000000,275.531311 
z"/>
<path fill="#0280E1" opacity="1.000000" stroke="none" 
	d="
M380.349182,494.623413 
	C385.775330,501.468445 384.967590,509.269012 383.710327,516.466736 
	C381.979584,526.375000 379.515930,536.329224 375.887268,545.690491 
	C370.681488,559.120422 355.501617,564.364136 343.216736,558.058228 
	C330.769379,551.668884 326.234314,536.697632 333.941681,524.393433 
	C342.022919,511.492401 353.369843,501.660950 366.837036,494.563812 
	C370.893951,492.425842 375.620636,491.083160 380.349182,494.623413 
z"/>
<path fill="#0280E1" opacity="1.000000" stroke="none" 
	d="
M279.190430,576.226379 
	C274.044189,591.723083 262.314056,596.056274 253.389038,595.278442 
	C236.966034,593.846985 226.320724,576.653992 234.000961,562.085999 
	C238.070358,554.367188 244.543610,547.578796 251.048538,541.581909 
	C256.800903,536.278748 263.697937,531.769226 270.824860,528.524048 
	C278.873230,524.859253 283.891266,528.392944 285.131897,537.287964 
	C286.999329,550.676636 283.614227,563.357178 279.190430,576.226379 
z"/>
<path fill="#0280E1" opacity="1.000000" stroke="none" 
	d="
M426.240234,619.206909 
	C417.342712,630.955933 402.992554,633.556702 392.185730,625.638855 
	C381.247772,617.624878 379.173798,602.459412 387.871460,591.050476 
	C395.796387,580.655212 405.195404,571.746033 416.710968,565.309692 
	C418.435028,564.346069 420.291656,563.544128 422.177399,562.958557 
	C429.748962,560.607483 435.064880,563.382629 435.755798,571.245239 
	C436.387665,578.436096 436.320862,585.975159 434.831146,592.993347 
	C432.955994,601.827332 429.321747,610.287842 426.240234,619.206909 
z"/>
<path fill="#0280E1" opacity="1.000000" stroke="none" 
	d="
M285.121338,633.423523 
	C293.590912,617.631836 306.001251,606.315063 321.551056,598.728149 
	C330.601257,594.312500 336.362030,597.495117 337.393158,607.433655 
	C339.153839,624.403870 335.444122,640.640930 326.697296,655.210083 
	C320.891174,664.881042 307.626251,667.615784 297.464874,662.692871 
	C286.498016,657.379822 281.620605,646.072083 285.121338,633.423523 
z"/>
</svg>