<svg version="1.1" id="Layer_1" xmlns="http://www.w3.org/2000/svg" xmlns:xlink="http://www.w3.org/1999/xlink" x="0px" y="0px"
	 width="100%" viewBox="0 0 702 702" enable-background="new 0 0 702 702" xml:space="preserve">
<path fill="#DCDCDC" opacity="1.000000" stroke="none" 
	d="
M0.999998,300.000000 
	C1.000000,286.312439 1.000000,272.624878 1.376357,258.383240 
	C2.166900,256.817413 2.687053,255.835281 2.979206,254.789474 
	C6.681232,241.537491 9.084453,227.754700 14.288474,215.124847 
	C25.530329,187.841537 43.609207,165.505630 67.522484,147.957291 
	C82.031601,137.310013 97.813316,129.170517 114.991989,124.103844 
	C134.876694,118.239067 155.252655,114.876389 176.010269,118.072121 
	C188.748383,120.033218 201.366425,122.928528 213.899597,125.975258 
	C217.802490,126.924019 219.222366,126.159500 221.246140,122.848076 
	C228.511627,110.959854 235.178360,98.448006 244.097046,87.881645 
	C262.528534,66.045090 285.453125,50.118340 312.682770,40.470963 
	C341.829346,30.144423 371.437347,28.311670 401.471680,34.769310 
	C433.572388,41.671249 460.864838,57.360455 483.724670,81.055275 
	C502.274200,100.282410 515.100281,122.675003 522.428894,148.215225 
	C523.768311,152.882935 525.807800,153.366882 529.910583,152.583984 
	C547.542847,149.219421 565.262268,149.125519 582.883484,152.500000 
	C616.701050,158.976044 645.252747,174.805847 667.714417,201.150696 
	C685.503418,222.015076 696.962585,245.818283 701.078003,273.046539 
	C701.237732,274.103729 702.338013,275.018738 703.000000,276.000000 
	C703.000000,288.687561 703.000000,301.375122 702.624695,314.618469 
	C701.852356,315.854553 701.198242,316.498199 701.095276,317.220428 
	C696.695374,348.091095 682.768188,374.260468 661.633423,396.789734 
	C651.888733,407.177368 640.390076,415.409515 627.993286,422.335388 
	C607.643677,433.704346 585.759827,440.780884 562.481628,440.841339 
	C434.537659,441.173706 306.592224,441.076385 178.647644,440.888824 
	C164.966522,440.868744 151.307556,441.990448 137.532486,439.251434 
	C119.244919,435.615173 101.661880,430.320618 85.373215,421.433441 
	C69.248970,412.635986 55.075294,401.221710 42.732922,387.419922 
	C22.228939,364.491455 9.325546,338.037720 3.838774,307.837769 
	C3.349046,305.142242 1.967405,302.608734 0.999998,300.000000 
z"/>
<path fill="transparent" opacity="1.000000" stroke="none" 
	d="
M0.999998,300.468658 
	C1.967405,302.608734 3.349046,305.142242 3.838774,307.837769 
	C9.325546,338.037720 22.228939,364.491455 42.732922,387.419922 
	C55.075294,401.221710 69.248970,412.635986 85.373215,421.433441 
	C101.661880,430.320618 119.244919,435.615173 137.532486,439.251434 
	C151.307556,441.990448 164.966522,440.868744 178.647644,440.888824 
	C306.592224,441.076385 434.537659,441.173706 562.481628,440.841339 
	C585.759827,440.780884 607.643677,433.704346 627.993286,422.335388 
	C640.390076,415.409515 651.888733,407.177368 661.633423,396.789734 
	C682.768188,374.260468 696.695374,348.091095 701.095276,317.220428 
	C701.198242,316.498199 701.852356,315.854553 702.624695,315.087128 
	C703.000000,444.295441 703.000000,573.590881 703.000000,702.943176 
	C469.106445,702.943176 235.212891,702.943176 1.000000,702.943176 
	C1.000000,568.979248 1.000000,434.958282 0.999998,300.468658 
M289.452484,530.935608 
	C296.535156,523.853027 296.535156,523.853027 288.651550,518.514465 
	C281.502808,526.016418 274.139160,533.743896 265.924011,542.364990 
	C265.924011,530.757812 265.822845,520.479736 265.982483,510.205780 
	C266.033813,506.900513 264.846497,505.872650 261.624634,505.909393 
	C258.566956,505.944275 257.044800,506.615082 257.119049,510.074615 
	C257.301331,518.563477 257.196655,527.058899 257.159546,535.551514 
	C257.152130,537.250000 256.931976,538.947571 256.701141,542.158508 
	C248.427307,533.548462 241.220016,526.048279 234.179062,518.721191 
	C226.858307,523.629883 226.797913,524.057800 231.862991,529.131592 
	C235.039520,532.313599 238.229263,535.482422 241.397858,538.672241 
	C244.259064,541.552673 247.099564,544.453613 250.699234,548.106689 
	C248.194534,548.518250 246.948853,548.891174 245.700470,548.900513 
	C238.040741,548.957703 230.378159,549.041992 222.721344,548.883972 
	C219.429352,548.816040 218.921402,550.434265 218.902954,553.194275 
	C218.884094,556.012939 219.955841,557.058899 222.733871,556.976990 
	C227.226074,556.844482 231.725113,556.944458 236.221268,556.945190 
	C240.901993,556.945984 245.582718,556.945374 250.263443,556.945374 
	C250.721832,557.723267 251.180237,558.501099 251.638626,559.278992 
	C243.700119,566.499817 235.761612,573.720642 227.892426,580.878357 
	C233.171494,587.203247 233.173721,587.205444 238.142441,582.242920 
	C243.091049,577.300537 248.021225,572.339539 252.990997,567.418457 
	C254.052444,566.367371 255.249466,565.453247 257.176392,563.793518 
	C257.176392,573.381042 257.241425,581.693909 257.145416,590.005005 
	C257.105255,593.485046 257.202545,596.129883 262.016876,596.064331 
	C266.712646,596.000488 265.895416,593.075195 265.918915,590.339478 
	C265.948975,586.842712 265.926239,583.345520 265.926239,579.848511 
	C265.926239,574.810547 265.926239,569.772644 265.926239,564.734680 
	C266.509308,564.429443 267.092407,564.124207 267.675476,563.818970 
	C275.203003,571.421326 282.730499,579.023743 290.216736,586.584412 
	C296.124939,581.680664 296.124817,581.680786 291.187012,576.726135 
	C288.013153,573.541504 284.836823,570.359253 281.667053,567.170532 
	C278.588531,564.073547 275.516968,560.969666 271.525574,556.944153 
	C283.518188,556.944153 293.980957,556.974243 304.443451,556.928711 
	C308.419983,556.911438 310.273956,554.424866 308.567963,550.894958 
	C308.033539,549.789246 305.691742,549.038757 304.163452,549.015137 
	C293.761932,548.854187 283.356720,548.930908 272.952667,548.930908 
	C272.771057,548.548157 272.589417,548.165344 272.407806,547.782593 
	C277.921814,542.334351 283.435791,536.886047 289.452484,530.935608 
M342.885010,646.384338 
	C345.313690,644.046387 347.742340,641.708374 351.094208,638.481628 
	C351.094208,649.055969 351.193542,658.181213 351.042969,667.302246 
	C350.986511,670.723511 352.829956,670.981323 355.471497,670.991455 
	C358.141632,671.001648 359.973511,670.674927 359.883972,667.281433 
	C359.717041,660.955200 359.839630,654.621277 359.841187,648.290588 
	C359.841888,645.427673 359.841309,642.564758 359.841309,639.701843 
	C367.082733,645.417480 373.054474,651.416931 379.040466,657.402283 
	C383.956512,662.317810 385.025940,662.127930 389.746735,653.756104 
	C382.410858,646.947327 374.615265,639.711914 366.312347,632.005676 
	C377.264191,632.005676 387.420715,631.875122 397.570618,632.076294 
	C401.140472,632.146912 402.148438,630.881592 402.097351,627.453369 
	C402.043884,623.865784 399.949341,623.972107 397.480927,623.980042 
	C387.252960,624.013184 377.024811,623.994019 366.796753,623.994019 
	C366.608185,623.568176 366.419586,623.142334 366.231018,622.716431 
	C372.600342,616.454346 378.989075,610.211853 385.332672,603.923828 
	C390.208405,599.090820 389.942963,597.854553 382.045868,593.759644 
	C375.033936,600.959045 367.678345,608.511292 359.841614,616.557556 
	C359.841614,614.434326 359.841919,612.822998 359.841583,611.211609 
	C359.839661,602.381958 359.739105,593.550598 359.885559,584.723450 
	C359.941742,581.337463 358.152802,580.994751 355.476746,581.008606 
	C352.841095,581.022217 350.981232,581.265564 351.043213,584.692505 
	C351.196808,593.186157 351.090515,601.684570 351.088776,610.181030 
	C351.088379,612.213074 351.088715,614.245117 351.088715,616.277100 
	C350.578400,616.474976 350.068085,616.672852 349.557800,616.870667 
	C342.182526,609.264404 334.807251,601.658081 327.515717,594.138184 
	C320.811798,598.691895 320.759247,599.118591 325.870239,604.236084 
	C329.519745,607.890320 333.187073,611.526855 336.820770,615.196777 
	C339.422638,617.824524 341.981934,620.494324 345.385559,623.994019 
	C334.849213,623.994019 325.712769,624.084778 316.579926,623.943359 
	C313.499084,623.895691 312.064026,624.640808 312.049408,628.085327 
	C312.033966,631.730652 313.871063,632.096436 316.751282,632.042908 
	C323.079834,631.925354 329.412048,632.006897 335.742767,632.007019 
	C338.561584,632.007019 341.380402,632.006958 344.199219,632.006958 
	C338.183411,639.481934 331.910370,645.675354 325.658752,651.890198 
	C320.733398,656.786621 320.921234,657.800049 327.913696,661.783936 
	C332.654297,656.902710 337.519409,651.893372 342.885010,646.384338 
M404.074158,506.476318 
	C404.073059,499.980011 403.959686,493.480896 404.120148,486.988586 
	C404.195587,483.936462 403.066895,482.927948 400.053040,482.919495 
	C397.002106,482.910950 395.879852,483.992523 396.019958,487.014465 
	C396.197174,490.837311 396.060455,494.674683 396.060181,498.505768 
	C396.059723,505.055450 396.060059,511.605133 396.060059,518.154846 
	C395.532471,518.436340 395.004883,518.717896 394.477295,518.999451 
	C386.991638,511.341949 379.505951,503.684479 372.078278,496.086304 
	C365.743408,501.143158 365.743286,501.143280 371.008820,506.414734 
	C372.303711,507.711060 373.600128,509.005859 374.895294,510.301910 
	C379.769257,515.179138 384.642883,520.056702 390.519440,525.937622 
	C379.547089,525.937622 370.113556,526.007507 360.682190,525.896851 
	C357.679077,525.861633 357.066437,527.332947 357.075989,529.917419 
	C357.085358,532.445557 357.544922,534.038757 360.616425,533.980225 
	C367.609741,533.846924 374.607422,533.942505 381.603333,533.944580 
	C384.121674,533.945374 386.639984,533.944702 389.158325,533.944702 
	C389.392822,534.501831 389.627289,535.058960 389.861786,535.616089 
	C382.245087,542.994873 374.628387,550.373657 367.019958,557.744446 
	C368.687042,559.711548 370.135376,561.420471 372.420624,564.116943 
	C380.214539,555.900574 387.572113,548.144226 394.929657,540.387939 
	C396.066925,550.483521 396.141083,559.917603 396.024139,569.349243 
	C395.986420,572.389160 397.504395,572.922974 400.061707,572.918640 
	C402.619385,572.914368 404.157593,572.363953 404.107178,569.335938 
	C403.985229,562.008972 404.071838,554.678528 404.074005,547.349487 
	C404.074646,545.178589 404.074097,543.007751 404.074097,540.836853 
	C411.452972,546.667114 417.498810,552.844055 423.585236,558.980713 
	C428.931946,564.371582 429.556854,564.281860 434.480377,556.462952 
	C427.151215,549.243591 419.554626,541.760864 411.616791,533.941956 
	C422.346313,533.941956 432.655548,533.865417 442.962372,533.989868 
	C445.951111,534.025940 447.099152,533.057739 447.080353,529.977234 
	C447.062195,526.994141 446.117981,525.834351 443.038757,525.883179 
	C434.046265,526.025574 425.049957,525.946350 416.055328,525.916626 
	C414.514709,525.911499 412.974701,525.722229 411.434387,525.618042 
	C411.177002,525.118164 410.919647,524.618286 410.662262,524.118347 
	C418.438751,516.505798 426.215240,508.893280 434.234985,501.042633 
	C432.201385,499.096680 430.575806,497.541168 427.274872,494.382507 
	C419.689056,502.730774 412.401276,510.751068 404.074371,519.914917 
	C404.074371,514.685547 404.074371,511.073914 404.074158,506.476318 
z"/>
<path fill="transparent" opacity="1.000000" stroke="none" 
	d="
M703.000000,275.531311 
	C702.338013,275.018738 701.237732,274.103729 701.078003,273.046539 
	C696.962585,245.818283 685.503418,222.015076 667.714417,201.150696 
	C645.252747,174.805847 616.701050,158.976044 582.883484,152.500000 
	C565.262268,149.125519 547.542847,149.219421 529.910583,152.583984 
	C525.807800,153.366882 523.768311,152.882935 522.428894,148.215225 
	C515.100281,122.675003 502.274200,100.282410 483.724670,81.055275 
	C460.864838,57.360455 433.572388,41.671249 401.471680,34.769310 
	C371.437347,28.311670 341.829346,30.144423 312.682770,40.470963 
	C285.453125,50.118340 262.528534,66.045090 244.097046,87.881645 
	C235.178360,98.448006 228.511627,110.959854 221.246140,122.848076 
	C219.222366,126.159500 217.802490,126.924019 213.899597,125.975258 
	C201.366425,122.928528 188.748383,120.033218 176.010269,118.072121 
	C155.252655,114.876389 134.876694,118.239067 114.991989,124.103844 
	C97.813316,129.170517 82.031601,137.310013 67.522484,147.957291 
	C43.609207,165.505630 25.530329,187.841537 14.288474,215.124847 
	C9.084453,227.754700 6.681232,241.537491 2.979206,254.789474 
	C2.687053,255.835281 2.166900,256.817413 1.376357,257.914551 
	C1.000000,172.363678 1.000000,86.727371 1.000000,1.045526 
	C234.886734,1.045526 468.773468,1.045526 703.000000,1.045526 
	C703.000000,92.353951 703.000000,183.708313 703.000000,275.531311 
z"/>
<path fill="#CACACA" opacity="1.000000" stroke="none" 
	d="
M289.201141,531.186707 
	C283.435791,536.886047 277.921814,542.334351 272.407806,547.782593 
	C272.589417,548.165344 272.771057,548.548157 272.952667,548.930908 
	C283.356720,548.930908 293.761932,548.854187 304.163452,549.015137 
	C305.691742,549.038757 308.033539,549.789246 308.567963,550.894958 
	C310.273956,554.424866 308.419983,556.911438 304.443451,556.928711 
	C293.980957,556.974243 283.518188,556.944153 271.525574,556.944153 
	C275.516968,560.969666 278.588531,564.073547 281.667053,567.170532 
	C284.836823,570.359253 288.013153,573.541504 291.187012,576.726135 
	C296.124817,581.680786 296.124939,581.680664 290.216736,586.584412 
	C282.730499,579.023743 275.203003,571.421326 267.675476,563.818970 
	C267.092407,564.124207 266.509308,564.429443 265.926239,564.734680 
	C265.926239,569.772644 265.926239,574.810547 265.926239,579.848511 
	C265.926239,583.345520 265.948975,586.842712 265.918915,590.339478 
	C265.895416,593.075195 266.712646,596.000488 262.016876,596.064331 
	C257.202545,596.129883 257.105255,593.485046 257.145416,590.005005 
	C257.241425,581.693909 257.176392,573.381042 257.176392,563.793518 
	C255.249466,565.453247 254.052444,566.367371 252.990997,567.418457 
	C248.021225,572.339539 243.091049,577.300537 238.142441,582.242920 
	C233.173721,587.205444 233.171494,587.203247 227.892426,580.878357 
	C235.761612,573.720642 243.700119,566.499817 251.638626,559.278992 
	C251.180237,558.501099 250.721832,557.723267 250.263443,556.945374 
	C245.582718,556.945374 240.901993,556.945984 236.221268,556.945190 
	C231.725113,556.944458 227.226074,556.844482 222.733871,556.976990 
	C219.955841,557.058899 218.884094,556.012939 218.902954,553.194275 
	C218.921402,550.434265 219.429352,548.816040 222.721344,548.883972 
	C230.378159,549.041992 238.040741,548.957703 245.700470,548.900513 
	C246.948853,548.891174 248.194534,548.518250 250.699234,548.106689 
	C247.099564,544.453613 244.259064,541.552673 241.397858,538.672241 
	C238.229263,535.482422 235.039520,532.313599 231.862991,529.131592 
	C226.797913,524.057800 226.858307,523.629883 234.179062,518.721191 
	C241.220016,526.048279 248.427307,533.548462 256.701141,542.158508 
	C256.931976,538.947571 257.152130,537.250000 257.159546,535.551514 
	C257.196655,527.058899 257.301331,518.563477 257.119049,510.074615 
	C257.044800,506.615082 258.566956,505.944275 261.624634,505.909393 
	C264.846497,505.872650 266.033813,506.900513 265.982483,510.205780 
	C265.822845,520.479736 265.924011,530.757812 265.924011,542.364990 
	C274.139160,533.743896 281.502808,526.016418 288.651550,518.514465 
	C296.535156,523.853027 296.535156,523.853027 289.201141,531.186707 
z"/>
<path fill="#CACACA" opacity="1.000000" stroke="none" 
	d="
M342.634766,646.634155 
	C337.519409,651.893372 332.654297,656.902710 327.913696,661.783936 
	C320.921234,657.800049 320.733398,656.786621 325.658752,651.890198 
	C331.910370,645.675354 338.183411,639.481934 344.199219,632.006958 
	C341.380402,632.006958 338.561584,632.007019 335.742767,632.007019 
	C329.412048,632.006897 323.079834,631.925354 316.751282,632.042908 
	C313.871063,632.096436 312.033966,631.730652 312.049408,628.085327 
	C312.064026,624.640808 313.499084,623.895691 316.579926,623.943359 
	C325.712769,624.084778 334.849213,623.994019 345.385559,623.994019 
	C341.981934,620.494324 339.422638,617.824524 336.820770,615.196777 
	C333.187073,611.526855 329.519745,607.890320 325.870239,604.236084 
	C320.759247,599.118591 320.811798,598.691895 327.515717,594.138184 
	C334.807251,601.658081 342.182526,609.264404 349.557800,616.870667 
	C350.068085,616.672852 350.578400,616.474976 351.088715,616.277100 
	C351.088715,614.245117 351.088379,612.213074 351.088776,610.181030 
	C351.090515,601.684570 351.196808,593.186157 351.043213,584.692505 
	C350.981232,581.265564 352.841095,581.022217 355.476746,581.008606 
	C358.152802,580.994751 359.941742,581.337463 359.885559,584.723450 
	C359.739105,593.550598 359.839661,602.381958 359.841583,611.211609 
	C359.841919,612.822998 359.841614,614.434326 359.841614,616.557556 
	C367.678345,608.511292 375.033936,600.959045 382.045868,593.759644 
	C389.942963,597.854553 390.208405,599.090820 385.332672,603.923828 
	C378.989075,610.211853 372.600342,616.454346 366.231018,622.716431 
	C366.419586,623.142334 366.608185,623.568176 366.796753,623.994019 
	C377.024811,623.994019 387.252960,624.013184 397.480927,623.980042 
	C399.949341,623.972107 402.043884,623.865784 402.097351,627.453369 
	C402.148438,630.881592 401.140472,632.146912 397.570618,632.076294 
	C387.420715,631.875122 377.264191,632.005676 366.312347,632.005676 
	C374.615265,639.711914 382.410858,646.947327 389.746735,653.756104 
	C385.025940,662.127930 383.956512,662.317810 379.040466,657.402283 
	C373.054474,651.416931 367.082733,645.417480 359.841309,639.701843 
	C359.841309,642.564758 359.841888,645.427673 359.841187,648.290588 
	C359.839630,654.621277 359.717041,660.955200 359.883972,667.281433 
	C359.973511,670.674927 358.141632,671.001648 355.471497,670.991455 
	C352.829956,670.981323 350.986511,670.723511 351.042969,667.302246 
	C351.193542,658.181213 351.094208,649.055969 351.094208,638.481628 
	C347.742340,641.708374 345.313690,644.046387 342.634766,646.634155 
z"/>
<path fill="#CACACA" opacity="1.000000" stroke="none" 
	d="
M404.074280,506.969299 
	C404.074371,511.073914 404.074371,514.685547 404.074371,519.914917 
	C412.401276,510.751068 419.689056,502.730774 427.274872,494.382507 
	C430.575806,497.541168 432.201385,499.096680 434.234985,501.042633 
	C426.215240,508.893280 418.438751,516.505798 410.662262,524.118347 
	C410.919647,524.618286 411.177002,525.118164 411.434387,525.618042 
	C412.974701,525.722229 414.514709,525.911499 416.055328,525.916626 
	C425.049957,525.946350 434.046265,526.025574 443.038757,525.883179 
	C446.117981,525.834351 447.062195,526.994141 447.080353,529.977234 
	C447.099152,533.057739 445.951111,534.025940 442.962372,533.989868 
	C432.655548,533.865417 422.346313,533.941956 411.616791,533.941956 
	C419.554626,541.760864 427.151215,549.243591 434.480377,556.462952 
	C429.556854,564.281860 428.931946,564.371582 423.585236,558.980713 
	C417.498810,552.844055 411.452972,546.667114 404.074097,540.836853 
	C404.074097,543.007751 404.074646,545.178589 404.074005,547.349487 
	C404.071838,554.678528 403.985229,562.008972 404.107178,569.335938 
	C404.157593,572.363953 402.619385,572.914368 400.061707,572.918640 
	C397.504395,572.922974 395.986420,572.389160 396.024139,569.349243 
	C396.141083,559.917603 396.066925,550.483521 394.929657,540.387939 
	C387.572113,548.144226 380.214539,555.900574 372.420624,564.116943 
	C370.135376,561.420471 368.687042,559.711548 367.019958,557.744446 
	C374.628387,550.373657 382.245087,542.994873 389.861786,535.616089 
	C389.627289,535.058960 389.392822,534.501831 389.158325,533.944702 
	C386.639984,533.944702 384.121674,533.945374 381.603333,533.944580 
	C374.607422,533.942505 367.609741,533.846924 360.616425,533.980225 
	C357.544922,534.038757 357.085358,532.445557 357.075989,529.917419 
	C357.066437,527.332947 357.679077,525.861633 360.682190,525.896851 
	C370.113556,526.007507 379.547089,525.937622 390.519440,525.937622 
	C384.642883,520.056702 379.769257,515.179138 374.895294,510.301910 
	C373.600128,509.005859 372.303711,507.711060 371.008820,506.414734 
	C365.743286,501.143280 365.743408,501.143158 372.078278,496.086304 
	C379.505951,503.684479 386.991638,511.341949 394.477295,518.999451 
	C395.004883,518.717896 395.532471,518.436340 396.060059,518.154846 
	C396.060059,511.605133 396.059723,505.055450 396.060181,498.505768 
	C396.060455,494.674683 396.197174,490.837311 396.019958,487.014465 
	C395.879852,483.992523 397.002106,482.910950 400.053040,482.919495 
	C403.066895,482.927948 404.195587,483.936462 404.120148,486.988586 
	C403.959686,493.480896 404.073059,499.980011 404.074280,506.969299 
z"/>
</svg>