<svg version="1.1" id="Layer_1" xmlns="http://www.w3.org/2000/svg" xmlns:xlink="http://www.w3.org/1999/xlink" x="0px" y="0px"
	 width="100%" viewBox="0 0 702 702" enable-background="new 0 0 702 702" xml:space="preserve">
<path fill="#F8E700" opacity="1.000000" stroke="none" 
	d="
M373.000000,703.000000 
	C358.979095,703.000000 344.958221,703.000000 330.247864,702.644043 
	C309.829559,699.341980 289.700378,697.995972 270.439911,693.177673 
	C178.352814,670.140808 106.014885,618.881592 54.910282,538.571289 
	C26.978964,494.677582 10.066393,446.691528 3.808707,394.993134 
	C2.960402,387.984802 1.940467,380.997192 1.000000,374.000000 
	C1.000000,359.312439 1.000000,344.624878 1.355833,329.247498 
	C4.445568,293.858978 11.350817,260.087219 23.924004,227.542175 
	C54.030258,149.613754 105.270859,89.680428 177.422684,47.728199 
	C218.353699,23.929113 262.414337,9.199540 309.527588,3.801276 
	C316.697906,2.979696 323.843170,1.939227 331.000000,1.000000 
	C344.687561,1.000000 358.375122,1.000000 372.757080,1.356209 
	C401.440582,3.641665 429.009705,8.103793 455.737152,16.716560 
	C538.256409,43.307846 603.328613,92.767075 649.641724,166.253693 
	C677.097778,209.819046 693.855591,257.335358 700.128418,308.498596 
	C701.048584,316.003601 702.041016,323.499756 703.000000,331.000000 
	C703.000000,344.687561 703.000000,358.375122 702.669800,372.790283 
	C700.119690,406.911713 693.738342,439.480743 682.163208,470.898254 
	C654.213257,546.760742 606.275146,606.627380 537.675293,649.594238 
	C493.907562,677.007812 446.402863,694.204590 394.963135,700.143433 
	C387.629913,700.990051 380.320465,702.042664 373.000000,703.000000 
z"/>
<path fill="transparent" opacity="1.000000" stroke="none" 
	d="
M373.468658,703.000000 
	C380.320465,702.042664 387.629913,700.990051 394.963135,700.143433 
	C446.402863,694.204590 493.907562,677.007812 537.675293,649.594238 
	C606.275146,606.627380 654.213257,546.760742 682.163208,470.898254 
	C693.738342,439.480743 700.119690,406.911713 702.669800,373.258942 
	C703.000000,482.927063 703.000000,592.854126 703.000000,703.000000 
	C593.312561,703.000000 483.624939,703.000000 373.468658,703.000000 
z"/>
<path fill="transparent" opacity="1.000000" stroke="none" 
	d="
M703.000000,330.531342 
	C702.041016,323.499756 701.048584,316.003601 700.128418,308.498596 
	C693.855591,257.335358 677.097778,209.819046 649.641724,166.253693 
	C603.328613,92.767075 538.256409,43.307846 455.737152,16.716560 
	C429.009705,8.103793 401.440582,3.641665 373.225708,1.356209 
	C482.927032,1.000000 592.854065,1.000000 703.000000,1.000000 
	C703.000000,110.687462 703.000000,220.375076 703.000000,330.531342 
z"/>
<path fill="transparent" opacity="1.000000" stroke="none" 
	d="
M1.000000,374.468658 
	C1.940467,380.997192 2.960402,387.984802 3.808707,394.993134 
	C10.066393,446.691528 26.978964,494.677582 54.910282,538.571289 
	C106.014885,618.881592 178.352814,670.140808 270.439911,693.177673 
	C289.700378,697.995972 309.829559,699.341980 329.779205,702.644043 
	C220.406265,703.000000 110.812523,703.000000 1.000000,703.000000 
	C1.000000,593.645874 1.000000,484.291595 1.000000,374.468658 
z"/>
<path fill="transparent" opacity="1.000000" stroke="none" 
	d="
M330.531342,1.000000 
	C323.843170,1.939227 316.697906,2.979696 309.527588,3.801276 
	C262.414337,9.199540 218.353699,23.929113 177.422684,47.728199 
	C105.270859,89.680428 54.030258,149.613754 23.924004,227.542175 
	C11.350817,260.087219 4.445568,293.858978 1.355833,328.778839 
	C1.000000,219.739380 1.000000,110.478752 1.000000,1.000000 
	C110.687462,1.000000 220.375076,1.000000 330.531342,1.000000 
z"/>
</svg>